# xmcd CD database file
#
# Track frame offsets:
#	150
#	20750
#	33460
#	54060
#
# Disc length: 1002 seconds
#
# Revision: 0
# Processed by: cddbd v1.5PL3 Copyright (c) Steve Scherf et al.
# Submitted via: CDex 1.51
#
DISCID=2803e804
DTITLE=PARIS MATCH - 太陽の接吻
DYEAR=2003
DGENRE=Japanese Pop
TTITLE0=太陽の接吻
TTITLE1=HELLO BEAUTIFUL DAY
TTITLE2=太陽の接吻 (Instrumental)
TTITLE3=SILENT NIGHT
EXTD=YEAR: 2003
EXTT0=
EXTT1=
EXTT2=
EXTT3=
PLAYORDER=
